<?xml version="1.0" encoding="UTF-8"?> <svg xmlns="http://www.w3.org/2000/svg" xmlns:xlink="http://www.w3.org/1999/xlink" version="1.1" id="Layer_1" x="0px" y="0px" viewBox="0 0 1920 1080" style="enable-background:new 0 0 1920 1080;" xml:space="preserve"> <style type="text/css"> .st0{fill:#282469;} .st1{opacity:0.41;} .st2{clip-path:url(#SVGID_2_);fill:#62539D;} </style> <rect x="-0.5" y="-0.1" class="st0" width="1919.5" height="1079.9"></rect> <g class="st1"> <defs> <rect id="SVGID_1_" y="-0.2" class="st1" width="1912" height="1080.2"></rect> </defs> <clipPath id="SVGID_2_"> <use xlink:href="#SVGID_1_" style="overflow:visible;"></use> </clipPath> <path class="st2" d="M341.2,2417.6l644.8-1357c51.3,23.4-56-7.9,0,0L749.3,2537"></path> <path class="st2" d="M1172.5,2536.8L986,1060.6c55.9-8-51.3,23.5,0,0L1580.5,2417"></path> <path class="st2" d="M-15.8,2188.1c-107.4-93.1-200.9-200.7-277.9-320L986,1060.6c30.8,47.8-43.1-37.3,0,0L-15.8,2188.1z"></path> <path class="st2" d="M1937.2,2187.3L986,1060.6c43.1-37.4-30.8,47.8,0,0L2214.8,1867C2138,1986.4,2044.6,2094.2,1937.2,2187.3z"></path> <path class="st2" d="M986,1078.6L-471.3,659.9c39.9-136.6,99.2-266.7,176.3-386.7L986,1078.6 C955.3,1126.3,1001.8,1024.5,986,1078.6z"></path> <path class="st2" d="M986,1078.6C970,1024.5,1016.7,1126.2,986,1078.6l1227.5-808.5c77.4,119.8,137,249.7,177.3,386.2L986,1078.6z"></path> <path class="st2" d="M338.9-277.3L986,1078.6c-51.4,23.6,43-37.4,0,0L-17.7-47.3"></path> <path class="st2" d="M1935.4-49.7L986,1078.6c-43.1-37.3,51.5,23.5,0,0l592.2-1357.5"></path> <path class="st2" d="M1170-398L986,1078.6c-55.9-7.9,55.9-8,0,0l-239.2-1476"></path> </g> </svg> 